/* XPM */
static char *bd08b205210b4a67f506ed6af7dde9a2jcCOksdfTQNIgaMh[] = {
/* columns rows colors chars-per-pixel */
"32 32 7 1 ",
"  c None",
". c gray32",
"X c gray48",
"o c #C1C1C1",
"O c #C3C3C3",
"+ c #D7D7D7",
"@ c gray93",
/* pixels */
"o+@OX.   o+@OX.  o+@OX.   o+@OX.",
"o+@OX.   o+@OX.  o+@OX.   o+@OX.",
"o+@OX.   o+@OX.  o+@OX.   o+@OX.",
"o+@oX.   o+@OX.  o+@OX.   o+@OX.",
"o+@OX.   o+@OX.  o+@OX.   o+@OX.",
"o+@OX.   o+@OX.  o+@OX.   o+@OX.",
"o+@OX.   o+@OX.  o+@OX.   o+@OX.",
"o+@OX.   o+@OX.  o+@OX.   o+@OX.",
"o+@OX.   o+@OX.  o+@OX.   o+@OX.",
"o+@OX.   o+@OX.  o+@OX.   o+@OX.",
"o+@OX.   o+@OX.  o+@OX.   o+@OX.",
"o+@OX.   o+@OX.  o+@OX.   o+@OX.",
"o+@OX.   o+@OX.  o+@OX.   o+@OX.",
"o+@OX.   o+@OX.  o+@OX.   o+@OX.",
"o+@OX.   o+@OX.  o+@OX.   o+@OX.",
"o+@OX.   o+@OX.  o+@OX.   o+@OX.",
"o+@OX.   o+@OX.  o+@OX.   o+@OX.",
"o+@OX.   o+@OX.  o+@OX.   o+@OX.",
"o+@OX.   o+@OX.  o+@OX.   o+@OX.",
"o+@OX.   o+@OX.  o+@OX.   o+@OX.",
"o+@OX.   o+@OX.  o+@OX.   o+@OX.",
"o+@OX.   o+@OX.  o+@OX.   o+@OX.",
"o+@OX.   o+@OX.  o+@OX.   o+@OX.",
"o+@OX.   o+@OX.  o+@OX.   o+@OX.",
"o+@OX.   o+@OX.  o+@OX.   o+@OX.",
"o+@OX.   o+@OX.  o+@OX.   o+@OX.",
"o+@OX.   o+@OX.  o+@OX.   o+@OX.",
"o+@OX.   o+@OX.  o+@OX.   o+@OX.",
"o+@OX.   o+@OX.  o+@OX.   o+@OX.",
"o+@OX.   o+@OX.  o+@OX.   o+@OX.",
"o+@OX.   o+@OX.  o+@OX.   o+@OX.",
"o+@OX.   o+@OX.  o+@OX.   o+@OX."
};
